<mxfile host="app.diagrams.net" agent="Mozilla/5.0 (Windows NT 10.0; Win64; x64) AppleWebKit/537.36 (KHTML, like Gecko) Chrome/132.0.0.0 YaBrowser/25.2.0.0 Safari/537.36" version="26.1.3">
  <diagram name="Страница — 1" id="yxauqew1p6e_78SKwZt_">
    <mxGraphModel dx="2004" dy="1086" grid="1" gridSize="10" guides="1" tooltips="1" connect="1" arrows="1" fold="1" page="1" pageScale="1" pageWidth="4000" pageHeight="4000" math="0" shadow="0">
      <root>
        <mxCell id="0" />
        <mxCell id="1" parent="0" />
        <mxCell id="zq7hlWjh5ElEgI0KTltq-1" value="" style="edgeStyle=orthogonalEdgeStyle;rounded=0;orthogonalLoop=1;jettySize=auto;html=1;strokeWidth=2;" edge="1" parent="1" source="zq7hlWjh5ElEgI0KTltq-2">
          <mxGeometry relative="1" as="geometry">
            <mxPoint x="1040" y="135" as="targetPoint" />
          </mxGeometry>
        </mxCell>
        <mxCell id="zq7hlWjh5ElEgI0KTltq-2" value="&lt;font style=&quot;font-size: 15px;&quot;&gt;Начало&lt;/font&gt;" style="ellipse;whiteSpace=wrap;html=1;fillColor=#d5e8d4;strokeColor=#82b366;strokeWidth=2;" vertex="1" parent="1">
          <mxGeometry x="1000" y="10" width="80" height="50" as="geometry" />
        </mxCell>
        <mxCell id="zq7hlWjh5ElEgI0KTltq-3" value="" style="edgeStyle=orthogonalEdgeStyle;rounded=0;orthogonalLoop=1;jettySize=auto;html=1;" edge="1" parent="1" source="zq7hlWjh5ElEgI0KTltq-4" target="zq7hlWjh5ElEgI0KTltq-33">
          <mxGeometry relative="1" as="geometry" />
        </mxCell>
        <mxCell id="zq7hlWjh5ElEgI0KTltq-4" value="&lt;font style=&quot;font-size: 15px;&quot;&gt;Админ:&lt;/font&gt;&lt;div&gt;&lt;font style=&quot;font-size: 15px;&quot;&gt;Создание опроса&lt;/font&gt;&lt;/div&gt;" style="whiteSpace=wrap;html=1;fillColor=none;strokeColor=#000000;strokeWidth=2;" vertex="1" parent="1">
          <mxGeometry x="980" y="130" width="120" height="60" as="geometry" />
        </mxCell>
        <mxCell id="zq7hlWjh5ElEgI0KTltq-5" value="" style="edgeStyle=orthogonalEdgeStyle;rounded=0;orthogonalLoop=1;jettySize=auto;html=1;" edge="1" parent="1" source="zq7hlWjh5ElEgI0KTltq-7" target="zq7hlWjh5ElEgI0KTltq-31">
          <mxGeometry relative="1" as="geometry" />
        </mxCell>
        <mxCell id="zq7hlWjh5ElEgI0KTltq-6" style="edgeStyle=orthogonalEdgeStyle;rounded=0;orthogonalLoop=1;jettySize=auto;html=1;entryX=0.5;entryY=0;entryDx=0;entryDy=0;" edge="1" parent="1" source="zq7hlWjh5ElEgI0KTltq-7" target="zq7hlWjh5ElEgI0KTltq-13">
          <mxGeometry relative="1" as="geometry">
            <Array as="points">
              <mxPoint x="1040" y="660" />
              <mxPoint x="950" y="660" />
            </Array>
          </mxGeometry>
        </mxCell>
        <mxCell id="zq7hlWjh5ElEgI0KTltq-7" value="&lt;font style=&quot;font-size: 15px;&quot;&gt;Участники:&lt;/font&gt;&lt;div&gt;&lt;font style=&quot;font-size: 15px;&quot;&gt;Проходят голосование&lt;/font&gt;&lt;/div&gt;" style="whiteSpace=wrap;html=1;fillColor=none;strokeColor=#000000;strokeWidth=2;" vertex="1" parent="1">
          <mxGeometry x="980" y="520" width="120" height="60" as="geometry" />
        </mxCell>
        <mxCell id="zq7hlWjh5ElEgI0KTltq-8" style="edgeStyle=orthogonalEdgeStyle;rounded=0;orthogonalLoop=1;jettySize=auto;html=1;exitX=0.5;exitY=1;exitDx=0;exitDy=0;entryX=0.5;entryY=0;entryDx=0;entryDy=0;" edge="1" parent="1" source="zq7hlWjh5ElEgI0KTltq-9" target="zq7hlWjh5ElEgI0KTltq-19">
          <mxGeometry relative="1" as="geometry" />
        </mxCell>
        <mxCell id="zq7hlWjh5ElEgI0KTltq-9" value="&lt;font style=&quot;font-size: 15px;&quot;&gt;Бот:&lt;/font&gt;&lt;div&gt;&lt;font style=&quot;font-size: 15px;&quot;&gt;Отправка QR-кода для оплаты&lt;/font&gt;&lt;/div&gt;" style="whiteSpace=wrap;html=1;fillColor=none;strokeColor=#000000;strokeWidth=2;" vertex="1" parent="1">
          <mxGeometry x="980" y="720" width="120" height="60" as="geometry" />
        </mxCell>
        <mxCell id="zq7hlWjh5ElEgI0KTltq-10" value="" style="edgeStyle=orthogonalEdgeStyle;rounded=0;orthogonalLoop=1;jettySize=auto;html=1;entryX=0;entryY=0.5;entryDx=0;entryDy=0;" edge="1" parent="1" source="zq7hlWjh5ElEgI0KTltq-11" target="zq7hlWjh5ElEgI0KTltq-43">
          <mxGeometry relative="1" as="geometry">
            <mxPoint x="1180" y="1170" as="targetPoint" />
            <Array as="points" />
          </mxGeometry>
        </mxCell>
        <mxCell id="zq7hlWjh5ElEgI0KTltq-11" value="&lt;font style=&quot;font-size: 13px;&quot;&gt;Админ:&lt;/font&gt;&lt;div&gt;&lt;font style=&quot;font-size: 13px;&quot;&gt;Подтверждение оплаты&lt;/font&gt;&lt;/div&gt;" style="whiteSpace=wrap;html=1;fillColor=none;strokeColor=#000000;strokeWidth=2;" vertex="1" parent="1">
          <mxGeometry x="980" y="1140" width="120" height="60" as="geometry" />
        </mxCell>
        <mxCell id="zq7hlWjh5ElEgI0KTltq-12" value="" style="edgeStyle=orthogonalEdgeStyle;rounded=0;orthogonalLoop=1;jettySize=auto;html=1;" edge="1" parent="1" source="zq7hlWjh5ElEgI0KTltq-13" target="zq7hlWjh5ElEgI0KTltq-15">
          <mxGeometry relative="1" as="geometry" />
        </mxCell>
        <mxCell id="zq7hlWjh5ElEgI0KTltq-13" value="&lt;span style=&quot;font-size: 15px;&quot;&gt;Запись данных в Google Sheets(поиск по ФИО):статус оплаты,&lt;/span&gt;&lt;div&gt;&lt;span style=&quot;font-size: 15px;&quot;&gt;время оплаты, выбор тренировок, статус тренировки&lt;/span&gt;&lt;/div&gt;&lt;div&gt;&lt;span style=&quot;font-size: 15px;&quot;&gt;&amp;nbsp;&lt;/span&gt;&lt;/div&gt;" style="whiteSpace=wrap;html=1;fillColor=none;strokeColor=#000000;strokeWidth=2;" vertex="1" parent="1">
          <mxGeometry x="820" y="1400" width="260" height="120" as="geometry" />
        </mxCell>
        <mxCell id="zq7hlWjh5ElEgI0KTltq-14" value="" style="edgeStyle=orthogonalEdgeStyle;rounded=0;orthogonalLoop=1;jettySize=auto;html=1;" edge="1" parent="1" source="zq7hlWjh5ElEgI0KTltq-15" target="zq7hlWjh5ElEgI0KTltq-26">
          <mxGeometry relative="1" as="geometry" />
        </mxCell>
        <mxCell id="zq7hlWjh5ElEgI0KTltq-15" value="&lt;font style=&quot;font-size: 15px;&quot;&gt;Сортировка участников(в GS):&lt;/font&gt;&lt;div&gt;&lt;font style=&quot;font-size: 15px;&quot;&gt;&amp;nbsp;по приоритетам, по времени оплаты&lt;/font&gt;&lt;/div&gt;" style="whiteSpace=wrap;html=1;fillColor=none;strokeColor=#000000;strokeWidth=2;" vertex="1" parent="1">
          <mxGeometry x="810" y="1660" width="260" height="110" as="geometry" />
        </mxCell>
        <mxCell id="zq7hlWjh5ElEgI0KTltq-16" style="edgeStyle=orthogonalEdgeStyle;rounded=0;orthogonalLoop=1;jettySize=auto;html=1;exitX=0.5;exitY=1;exitDx=0;exitDy=0;entryX=0.5;entryY=0;entryDx=0;entryDy=0;" edge="1" parent="1" source="zq7hlWjh5ElEgI0KTltq-38" target="zq7hlWjh5ElEgI0KTltq-11">
          <mxGeometry relative="1" as="geometry" />
        </mxCell>
        <mxCell id="zq7hlWjh5ElEgI0KTltq-17" value="ДА" style="edgeLabel;html=1;align=center;verticalAlign=middle;resizable=0;points=[];" vertex="1" connectable="0" parent="zq7hlWjh5ElEgI0KTltq-16">
          <mxGeometry x="-0.143" y="-1" relative="1" as="geometry">
            <mxPoint as="offset" />
          </mxGeometry>
        </mxCell>
        <mxCell id="zq7hlWjh5ElEgI0KTltq-18" value="" style="edgeStyle=orthogonalEdgeStyle;rounded=0;orthogonalLoop=1;jettySize=auto;html=1;" edge="1" parent="1" source="zq7hlWjh5ElEgI0KTltq-19" target="zq7hlWjh5ElEgI0KTltq-38">
          <mxGeometry relative="1" as="geometry" />
        </mxCell>
        <mxCell id="zq7hlWjh5ElEgI0KTltq-19" value="&lt;div&gt;&lt;font style=&quot;font-size: 13px;&quot;&gt;Пользователь:&lt;/font&gt;&lt;/div&gt;&lt;div&gt;&lt;font style=&quot;font-size: 13px;&quot;&gt;Подтверждение оплаты&lt;/font&gt;&lt;/div&gt;" style="whiteSpace=wrap;html=1;fillColor=none;strokeColor=#000000;strokeWidth=2;" vertex="1" parent="1">
          <mxGeometry x="980" y="920" width="120" height="60" as="geometry" />
        </mxCell>
        <mxCell id="zq7hlWjh5ElEgI0KTltq-20" style="edgeStyle=orthogonalEdgeStyle;rounded=0;orthogonalLoop=1;jettySize=auto;html=1;exitX=0;exitY=0.5;exitDx=0;exitDy=0;entryX=1;entryY=0.5;entryDx=0;entryDy=0;" edge="1" parent="1" source="zq7hlWjh5ElEgI0KTltq-21" target="zq7hlWjh5ElEgI0KTltq-49">
          <mxGeometry relative="1" as="geometry" />
        </mxCell>
        <mxCell id="zq7hlWjh5ElEgI0KTltq-21" value="&lt;span style=&quot;font-size: 15px;&quot;&gt;Бот: отправляет уведомления:&lt;/span&gt;&lt;div&gt;&lt;span style=&quot;font-size: 15px;&quot;&gt;Подтверждение тренировок, выбранные тренировки/резерв&lt;/span&gt;&lt;/div&gt;" style="whiteSpace=wrap;html=1;fillColor=none;strokeColor=#000000;strokeWidth=2;" vertex="1" parent="1">
          <mxGeometry x="820" y="2060" width="260" height="110" as="geometry" />
        </mxCell>
        <mxCell id="zq7hlWjh5ElEgI0KTltq-22" value="Конец" style="ellipse;whiteSpace=wrap;html=1;fillColor=#f8cecc;strokeColor=#b85450;strokeWidth=2;" vertex="1" parent="1">
          <mxGeometry x="560" y="2270" width="80" height="80" as="geometry" />
        </mxCell>
        <mxCell id="zq7hlWjh5ElEgI0KTltq-23" style="edgeStyle=orthogonalEdgeStyle;rounded=0;orthogonalLoop=1;jettySize=auto;html=1;exitX=0.5;exitY=1;exitDx=0;exitDy=0;entryX=0.5;entryY=0;entryDx=0;entryDy=0;" edge="1" parent="1" source="zq7hlWjh5ElEgI0KTltq-26" target="zq7hlWjh5ElEgI0KTltq-21">
          <mxGeometry relative="1" as="geometry" />
        </mxCell>
        <mxCell id="zq7hlWjh5ElEgI0KTltq-24" value="ДА" style="edgeLabel;html=1;align=center;verticalAlign=middle;resizable=0;points=[];" vertex="1" connectable="0" parent="zq7hlWjh5ElEgI0KTltq-23">
          <mxGeometry x="-0.104" y="4" relative="1" as="geometry">
            <mxPoint as="offset" />
          </mxGeometry>
        </mxCell>
        <mxCell id="zq7hlWjh5ElEgI0KTltq-25" value="" style="edgeStyle=orthogonalEdgeStyle;rounded=0;orthogonalLoop=1;jettySize=auto;html=1;" edge="1" parent="1" source="zq7hlWjh5ElEgI0KTltq-26" target="zq7hlWjh5ElEgI0KTltq-28">
          <mxGeometry relative="1" as="geometry" />
        </mxCell>
        <mxCell id="zq7hlWjh5ElEgI0KTltq-26" value="&lt;font style=&quot;font-size: 16px;&quot;&gt;Админ подтвердил список?&lt;/font&gt;" style="rhombus;whiteSpace=wrap;html=1;fillColor=none;strokeColor=#000000;strokeWidth=2;" vertex="1" parent="1">
          <mxGeometry x="1225" y="1690" width="170" height="210" as="geometry" />
        </mxCell>
        <mxCell id="zq7hlWjh5ElEgI0KTltq-27" style="edgeStyle=orthogonalEdgeStyle;rounded=0;orthogonalLoop=1;jettySize=auto;html=1;entryX=1;entryY=0.25;entryDx=0;entryDy=0;" edge="1" parent="1" source="zq7hlWjh5ElEgI0KTltq-28" target="zq7hlWjh5ElEgI0KTltq-15">
          <mxGeometry relative="1" as="geometry" />
        </mxCell>
        <mxCell id="zq7hlWjh5ElEgI0KTltq-28" value="&lt;font style=&quot;font-size: 16px;&quot;&gt;Внесение корректировок&lt;/font&gt;" style="whiteSpace=wrap;html=1;fillColor=none;strokeColor=#000000;strokeWidth=2;" vertex="1" parent="1">
          <mxGeometry x="1230" y="1510" width="160" height="80" as="geometry" />
        </mxCell>
        <mxCell id="zq7hlWjh5ElEgI0KTltq-29" style="edgeStyle=orthogonalEdgeStyle;rounded=0;orthogonalLoop=1;jettySize=auto;html=1;exitX=0.5;exitY=1;exitDx=0;exitDy=0;entryX=1;entryY=0.5;entryDx=0;entryDy=0;" edge="1" parent="1" source="zq7hlWjh5ElEgI0KTltq-31" target="zq7hlWjh5ElEgI0KTltq-9">
          <mxGeometry relative="1" as="geometry" />
        </mxCell>
        <mxCell id="zq7hlWjh5ElEgI0KTltq-30" value="ДА" style="edgeLabel;html=1;align=center;verticalAlign=middle;resizable=0;points=[];" vertex="1" connectable="0" parent="zq7hlWjh5ElEgI0KTltq-29">
          <mxGeometry x="-0.0899" y="-2" relative="1" as="geometry">
            <mxPoint as="offset" />
          </mxGeometry>
        </mxCell>
        <mxCell id="zq7hlWjh5ElEgI0KTltq-31" value="&lt;font style=&quot;font-size: 15px;&quot;&gt;Пользователь подтвердил голосование?&lt;/font&gt;" style="rhombus;whiteSpace=wrap;html=1;fillColor=none;strokeColor=#000000;strokeWidth=2;" vertex="1" parent="1">
          <mxGeometry x="1260" y="466.25" width="220" height="167.5" as="geometry" />
        </mxCell>
        <mxCell id="zq7hlWjh5ElEgI0KTltq-32" value="" style="edgeStyle=orthogonalEdgeStyle;rounded=0;orthogonalLoop=1;jettySize=auto;html=1;" edge="1" parent="1" source="zq7hlWjh5ElEgI0KTltq-33" target="zq7hlWjh5ElEgI0KTltq-35">
          <mxGeometry relative="1" as="geometry" />
        </mxCell>
        <mxCell id="zq7hlWjh5ElEgI0KTltq-33" value="&lt;font style=&quot;font-size: 15px;&quot;&gt;Админ:&lt;/font&gt;&lt;div&gt;&lt;font style=&quot;font-size: 15px;&quot;&gt;Добавил QR-код для оплаты&lt;/font&gt;&lt;/div&gt;" style="whiteSpace=wrap;html=1;fillColor=none;strokeColor=#000000;strokeWidth=2;" vertex="1" parent="1">
          <mxGeometry x="980" y="250" width="120" height="60" as="geometry" />
        </mxCell>
        <mxCell id="zq7hlWjh5ElEgI0KTltq-34" style="edgeStyle=orthogonalEdgeStyle;rounded=0;orthogonalLoop=1;jettySize=auto;html=1;exitX=0.5;exitY=1;exitDx=0;exitDy=0;entryX=0.5;entryY=0;entryDx=0;entryDy=0;" edge="1" parent="1" source="zq7hlWjh5ElEgI0KTltq-35" target="zq7hlWjh5ElEgI0KTltq-7">
          <mxGeometry relative="1" as="geometry" />
        </mxCell>
        <mxCell id="zq7hlWjh5ElEgI0KTltq-35" value="&lt;font style=&quot;font-size: 15px;&quot;&gt;Админ:&lt;/font&gt;&lt;div&gt;&lt;font style=&quot;font-size: 15px;&quot;&gt;Отправил ссылку на бот&lt;/font&gt;&lt;/div&gt;" style="whiteSpace=wrap;html=1;fillColor=none;strokeColor=#000000;strokeWidth=2;" vertex="1" parent="1">
          <mxGeometry x="980" y="370" width="120" height="60" as="geometry" />
        </mxCell>
        <mxCell id="zq7hlWjh5ElEgI0KTltq-36" style="edgeStyle=orthogonalEdgeStyle;rounded=0;orthogonalLoop=1;jettySize=auto;html=1;exitX=0;exitY=0;exitDx=0;exitDy=0;entryX=1;entryY=0;entryDx=0;entryDy=0;" edge="1" parent="1" source="zq7hlWjh5ElEgI0KTltq-31" target="zq7hlWjh5ElEgI0KTltq-7">
          <mxGeometry relative="1" as="geometry">
            <mxPoint x="1090" y="527" as="targetPoint" />
            <Array as="points">
              <mxPoint x="1180" y="508" />
              <mxPoint x="1180" y="520" />
            </Array>
          </mxGeometry>
        </mxCell>
        <mxCell id="zq7hlWjh5ElEgI0KTltq-37" value="НЕТ" style="edgeLabel;html=1;align=center;verticalAlign=middle;resizable=0;points=[];" vertex="1" connectable="0" parent="zq7hlWjh5ElEgI0KTltq-36">
          <mxGeometry x="-0.1254" y="-2" relative="1" as="geometry">
            <mxPoint as="offset" />
          </mxGeometry>
        </mxCell>
        <mxCell id="zq7hlWjh5ElEgI0KTltq-38" value="Пользователь подтвердил оплату?" style="rhombus;whiteSpace=wrap;html=1;fillColor=none;strokeColor=#000000;strokeWidth=2;" vertex="1" parent="1">
          <mxGeometry x="1200" y="880" width="140" height="140" as="geometry" />
        </mxCell>
        <mxCell id="zq7hlWjh5ElEgI0KTltq-39" style="edgeStyle=orthogonalEdgeStyle;rounded=0;orthogonalLoop=1;jettySize=auto;html=1;exitX=0;exitY=0;exitDx=0;exitDy=0;entryX=1.007;entryY=0.138;entryDx=0;entryDy=0;entryPerimeter=0;" edge="1" parent="1" source="zq7hlWjh5ElEgI0KTltq-38" target="zq7hlWjh5ElEgI0KTltq-19">
          <mxGeometry relative="1" as="geometry" />
        </mxCell>
        <mxCell id="zq7hlWjh5ElEgI0KTltq-40" value="НЕТ" style="edgeLabel;html=1;align=center;verticalAlign=middle;resizable=0;points=[];" vertex="1" connectable="0" parent="zq7hlWjh5ElEgI0KTltq-39">
          <mxGeometry x="-0.0618" y="-2" relative="1" as="geometry">
            <mxPoint as="offset" />
          </mxGeometry>
        </mxCell>
        <mxCell id="zq7hlWjh5ElEgI0KTltq-41" style="edgeStyle=orthogonalEdgeStyle;rounded=0;orthogonalLoop=1;jettySize=auto;html=1;exitX=0.5;exitY=1;exitDx=0;exitDy=0;entryX=1;entryY=0.25;entryDx=0;entryDy=0;" edge="1" parent="1" source="zq7hlWjh5ElEgI0KTltq-43" target="zq7hlWjh5ElEgI0KTltq-13">
          <mxGeometry relative="1" as="geometry" />
        </mxCell>
        <mxCell id="zq7hlWjh5ElEgI0KTltq-42" value="ДА" style="edgeLabel;html=1;align=center;verticalAlign=middle;resizable=0;points=[];" vertex="1" connectable="0" parent="zq7hlWjh5ElEgI0KTltq-41">
          <mxGeometry x="-0.416" relative="1" as="geometry">
            <mxPoint as="offset" />
          </mxGeometry>
        </mxCell>
        <mxCell id="zq7hlWjh5ElEgI0KTltq-43" value="Админ&lt;div&gt;&amp;nbsp;подтвердил оплату?&lt;/div&gt;" style="rhombus;whiteSpace=wrap;html=1;fillColor=none;strokeColor=#000000;strokeWidth=2;" vertex="1" parent="1">
          <mxGeometry x="1200" y="1100" width="140" height="140" as="geometry" />
        </mxCell>
        <mxCell id="zq7hlWjh5ElEgI0KTltq-44" style="edgeStyle=orthogonalEdgeStyle;rounded=0;orthogonalLoop=1;jettySize=auto;html=1;exitX=0.296;exitY=0.187;exitDx=0;exitDy=0;entryX=1.007;entryY=0.138;entryDx=0;entryDy=0;entryPerimeter=0;exitPerimeter=0;" edge="1" parent="1" source="zq7hlWjh5ElEgI0KTltq-43">
          <mxGeometry relative="1" as="geometry">
            <mxPoint x="1234" y="1126.95" as="sourcePoint" />
            <mxPoint x="1100" y="1139.95" as="targetPoint" />
          </mxGeometry>
        </mxCell>
        <mxCell id="zq7hlWjh5ElEgI0KTltq-45" value="НЕТ" style="edgeLabel;html=1;align=center;verticalAlign=middle;resizable=0;points=[];" vertex="1" connectable="0" parent="zq7hlWjh5ElEgI0KTltq-44">
          <mxGeometry x="-0.0618" y="-2" relative="1" as="geometry">
            <mxPoint as="offset" />
          </mxGeometry>
        </mxCell>
        <mxCell id="zq7hlWjh5ElEgI0KTltq-46" style="edgeStyle=orthogonalEdgeStyle;rounded=0;orthogonalLoop=1;jettySize=auto;html=1;exitX=0;exitY=0.5;exitDx=0;exitDy=0;entryX=1;entryY=0.5;entryDx=0;entryDy=0;" edge="1" parent="1" source="zq7hlWjh5ElEgI0KTltq-49" target="zq7hlWjh5ElEgI0KTltq-52">
          <mxGeometry relative="1" as="geometry" />
        </mxCell>
        <mxCell id="zq7hlWjh5ElEgI0KTltq-47" value="НЕТ" style="edgeLabel;html=1;align=center;verticalAlign=middle;resizable=0;points=[];" vertex="1" connectable="0" parent="zq7hlWjh5ElEgI0KTltq-46">
          <mxGeometry x="0.035" y="2" relative="1" as="geometry">
            <mxPoint x="-1" as="offset" />
          </mxGeometry>
        </mxCell>
        <mxCell id="zq7hlWjh5ElEgI0KTltq-48" style="edgeStyle=orthogonalEdgeStyle;rounded=0;orthogonalLoop=1;jettySize=auto;html=1;entryX=0.5;entryY=0;entryDx=0;entryDy=0;" edge="1" parent="1" source="zq7hlWjh5ElEgI0KTltq-49" target="zq7hlWjh5ElEgI0KTltq-22">
          <mxGeometry relative="1" as="geometry">
            <mxPoint x="590" y="2430" as="targetPoint" />
            <Array as="points" />
          </mxGeometry>
        </mxCell>
        <mxCell id="zq7hlWjh5ElEgI0KTltq-49" value="Пользователь подтвердил участие в тренировках?" style="rhombus;whiteSpace=wrap;html=1;fillColor=none;strokeColor=#000000;strokeWidth=2;" vertex="1" parent="1">
          <mxGeometry x="530" y="2045" width="140" height="140" as="geometry" />
        </mxCell>
        <mxCell id="zq7hlWjh5ElEgI0KTltq-50" style="edgeStyle=orthogonalEdgeStyle;rounded=0;orthogonalLoop=1;jettySize=auto;html=1;exitX=0.5;exitY=0;exitDx=0;exitDy=0;entryX=0;entryY=0.5;entryDx=0;entryDy=0;" edge="1" parent="1" source="zq7hlWjh5ElEgI0KTltq-52" target="zq7hlWjh5ElEgI0KTltq-13">
          <mxGeometry relative="1" as="geometry" />
        </mxCell>
        <mxCell id="zq7hlWjh5ElEgI0KTltq-51" style="edgeStyle=orthogonalEdgeStyle;rounded=0;orthogonalLoop=1;jettySize=auto;html=1;entryX=0;entryY=0.5;entryDx=0;entryDy=0;" edge="1" parent="1" source="zq7hlWjh5ElEgI0KTltq-52" target="zq7hlWjh5ElEgI0KTltq-22">
          <mxGeometry relative="1" as="geometry">
            <mxPoint x="370" y="2340" as="targetPoint" />
            <Array as="points">
              <mxPoint x="370" y="2310" />
            </Array>
          </mxGeometry>
        </mxCell>
        <mxCell id="zq7hlWjh5ElEgI0KTltq-52" value="Отмена тренировки" style="whiteSpace=wrap;html=1;fillColor=none;strokeColor=#000000;strokeWidth=2;" vertex="1" parent="1">
          <mxGeometry x="310" y="2085" width="120" height="60" as="geometry" />
        </mxCell>
      </root>
    </mxGraphModel>
  </diagram>
</mxfile>
